<svg width="277" height="48" viewBox="0 0 277 48" fill="none" xmlns="http://www.w3.org/2000/svg">
<rect x="253" width="23" height="48" fill="white"/>
<path d="M32.0199 17.1818V21.7273H18.8807V17.1818H32.0199ZM21.8636 11.9545H27.9148V32.2955C27.9148 32.8542 28 33.2898 28.1705 33.6023C28.3409 33.9053 28.5777 34.1184 28.8807 34.2415C29.1932 34.3646 29.553 34.4261 29.9602 34.4261C30.2443 34.4261 30.5284 34.4025 30.8125 34.3551C31.0966 34.2983 31.3144 34.2557 31.4659 34.2273L32.4176 38.7301C32.1146 38.8248 31.6884 38.9337 31.1392 39.0568C30.59 39.1894 29.9223 39.2699 29.1364 39.2983C27.678 39.3551 26.3996 39.161 25.3011 38.7159C24.2121 38.2708 23.3646 37.5795 22.7585 36.642C22.1525 35.7045 21.8542 34.5208 21.8636 33.0909V11.9545ZM35.9616 39V17.1818H42.0128V39H35.9616ZM39.0014 14.3693C38.1018 14.3693 37.33 14.071 36.6861 13.4744C36.0516 12.8684 35.7344 12.1439 35.7344 11.3011C35.7344 10.4678 36.0516 9.75284 36.6861 9.15625C37.33 8.55019 38.1018 8.24716 39.0014 8.24716C39.901 8.24716 40.6681 8.55019 41.3026 9.15625C41.9465 9.75284 42.2685 10.4678 42.2685 11.3011C42.2685 12.1439 41.9465 12.8684 41.3026 13.4744C40.6681 14.071 39.901 14.3693 39.0014 14.3693ZM52.9112 26.3864V39H46.8601V17.1818H52.6271V21.0312H52.8828C53.3658 19.7623 54.1754 18.7585 55.3118 18.0199C56.4482 17.2718 57.826 16.8977 59.4453 16.8977C60.9605 16.8977 62.2815 17.2292 63.4084 17.892C64.5353 18.5549 65.4112 19.5019 66.0362 20.733C66.6612 21.9545 66.9737 23.4129 66.9737 25.108V39H60.9226V26.1875C60.9321 24.8523 60.5911 23.8106 59.8999 23.0625C59.2086 22.3049 58.2569 21.9261 57.0447 21.9261C56.2304 21.9261 55.5107 22.1013 54.8857 22.4517C54.2701 22.8021 53.7872 23.3134 53.4368 23.9858C53.0959 24.6487 52.9207 25.4489 52.9112 26.3864ZM74.6974 47.1818C73.9304 47.1818 73.2107 47.1203 72.5384 46.9972C71.8755 46.8835 71.3262 46.7367 70.8906 46.5568L72.2543 42.0398C72.9645 42.2576 73.6037 42.3759 74.1719 42.3949C74.7495 42.4138 75.2467 42.2813 75.6634 41.9972C76.0895 41.7131 76.4351 41.2301 76.7003 40.5483L77.0554 39.625L69.2287 17.1818H75.5923L80.1094 33.2045H80.3366L84.8963 17.1818H91.3026L82.8224 41.358C82.4152 42.5322 81.8613 43.5549 81.1605 44.4261C80.4692 45.3068 79.5933 45.9839 78.5327 46.4574C77.4721 46.9403 76.1937 47.1818 74.6974 47.1818ZM121.81 23.4034L116.271 23.7443C116.176 23.2708 115.972 22.8447 115.66 22.4659C115.347 22.0777 114.935 21.7699 114.424 21.5426C113.922 21.3059 113.321 21.1875 112.62 21.1875C111.683 21.1875 110.892 21.3864 110.248 21.7841C109.604 22.1723 109.282 22.6932 109.282 23.3466C109.282 23.8674 109.49 24.3078 109.907 24.6676C110.324 25.0275 111.039 25.3163 112.052 25.5341L116.001 26.3295C118.122 26.7652 119.703 27.4659 120.745 28.4318C121.787 29.3977 122.308 30.6667 122.308 32.2386C122.308 33.6686 121.886 34.9233 121.043 36.0028C120.21 37.0824 119.064 37.9252 117.606 38.5312C116.157 39.1278 114.486 39.4261 112.592 39.4261C109.703 39.4261 107.402 38.8248 105.688 37.6222C103.984 36.41 102.985 34.7623 102.691 32.679L108.643 32.3665C108.823 33.2472 109.258 33.9195 109.95 34.3835C110.641 34.8381 111.526 35.0653 112.606 35.0653C113.666 35.0653 114.519 34.8617 115.163 34.4545C115.816 34.0379 116.147 33.5028 116.157 32.8494C116.147 32.3002 115.915 31.8504 115.461 31.5C115.006 31.1402 114.306 30.8655 113.359 30.6761L109.58 29.9233C107.45 29.4972 105.863 28.7585 104.822 27.7074C103.79 26.6562 103.273 25.3163 103.273 23.6875C103.273 22.286 103.652 21.0786 104.41 20.0653C105.177 19.0521 106.252 18.2708 107.634 17.7216C109.026 17.1723 110.655 16.8977 112.521 16.8977C115.276 16.8977 117.445 17.4801 119.026 18.6449C120.617 19.8097 121.545 21.3958 121.81 23.4034ZM135.976 39.4261C133.769 39.4261 131.861 38.9574 130.251 38.0199C128.651 37.0729 127.415 35.7566 126.544 34.071C125.673 32.3759 125.237 30.411 125.237 28.1761C125.237 25.9223 125.673 23.9527 126.544 22.267C127.415 20.572 128.651 19.2557 130.251 18.3182C131.861 17.3712 133.769 16.8977 135.976 16.8977C138.182 16.8977 140.086 17.3712 141.686 18.3182C143.296 19.2557 144.536 20.572 145.408 22.267C146.279 23.9527 146.714 25.9223 146.714 28.1761C146.714 30.411 146.279 32.3759 145.408 34.071C144.536 35.7566 143.296 37.0729 141.686 38.0199C140.086 38.9574 138.182 39.4261 135.976 39.4261ZM136.004 34.7386C137.008 34.7386 137.846 34.4545 138.518 33.8864C139.191 33.3087 139.697 32.5227 140.038 31.5284C140.389 30.5341 140.564 29.4025 140.564 28.1335C140.564 26.8646 140.389 25.733 140.038 24.7386C139.697 23.7443 139.191 22.9583 138.518 22.3807C137.846 21.803 137.008 21.5142 136.004 21.5142C134.991 21.5142 134.139 21.803 133.447 22.3807C132.766 22.9583 132.25 23.7443 131.899 24.7386C131.558 25.733 131.388 26.8646 131.388 28.1335C131.388 29.4025 131.558 30.5341 131.899 31.5284C132.25 32.5227 132.766 33.3087 133.447 33.8864C134.139 34.4545 134.991 34.7386 136.004 34.7386ZM162.382 17.1818V21.7273H148.916V17.1818H162.382ZM151.999 39V15.6051C151.999 14.0237 152.306 12.7121 152.922 11.6705C153.547 10.6288 154.399 9.84754 155.479 9.3267C156.558 8.80587 157.785 8.54545 159.158 8.54545C160.086 8.54545 160.933 8.61648 161.7 8.75852C162.477 8.90057 163.054 9.02841 163.433 9.14205L162.354 13.6875C162.117 13.6117 161.823 13.5407 161.473 13.4744C161.132 13.4081 160.782 13.375 160.422 13.375C159.532 13.375 158.911 13.5833 158.561 14C158.211 14.4072 158.036 14.9801 158.036 15.7188V39H151.999ZM177.684 17.1818V21.7273H164.545V17.1818H177.684ZM167.528 11.9545H173.579V32.2955C173.579 32.8542 173.664 33.2898 173.835 33.6023C174.005 33.9053 174.242 34.1184 174.545 34.2415C174.857 34.3646 175.217 34.4261 175.624 34.4261C175.908 34.4261 176.192 34.4025 176.477 34.3551C176.761 34.2983 176.978 34.2557 177.13 34.2273L178.082 38.7301C177.779 38.8248 177.353 38.9337 176.803 39.0568C176.254 39.1894 175.586 39.2699 174.8 39.2983C173.342 39.3551 172.064 39.161 170.965 38.7159C169.876 38.2708 169.029 37.5795 168.423 36.642C167.817 35.7045 167.518 34.5208 167.528 33.0909V11.9545ZM185.93 39L179.992 17.1818H186.114L189.495 31.8409H189.694L193.217 17.1818H199.225L202.805 31.7557H202.989L206.313 17.1818H212.421L206.498 39H200.092L196.342 25.2784H196.072L192.322 39H185.93ZM221.871 39.4119C220.479 39.4119 219.238 39.1705 218.149 38.6875C217.06 38.1951 216.198 37.4706 215.564 36.5142C214.939 35.5483 214.626 34.3456 214.626 32.9062C214.626 31.6941 214.849 30.6761 215.294 29.8523C215.739 29.0284 216.345 28.3655 217.112 27.8636C217.879 27.3617 218.75 26.983 219.726 26.7273C220.711 26.4716 221.743 26.2917 222.822 26.1875C224.091 26.0549 225.114 25.9318 225.891 25.8182C226.667 25.6951 227.231 25.5152 227.581 25.2784C227.931 25.0417 228.107 24.6913 228.107 24.2273V24.142C228.107 23.2424 227.822 22.5464 227.254 22.054C226.696 21.5616 225.9 21.3153 224.868 21.3153C223.779 21.3153 222.912 21.5568 222.268 22.0398C221.625 22.5133 221.198 23.1098 220.99 23.8295L215.393 23.375C215.678 22.0492 216.236 20.9034 217.07 19.9375C217.903 18.9621 218.978 18.214 220.294 17.6932C221.62 17.1629 223.154 16.8977 224.896 16.8977C226.108 16.8977 227.268 17.0398 228.376 17.3239C229.494 17.608 230.483 18.0483 231.345 18.6449C232.216 19.2415 232.903 20.0085 233.405 20.946C233.907 21.8741 234.158 22.9867 234.158 24.2841V39H228.419V35.9744H228.249C227.898 36.6562 227.429 37.2576 226.842 37.7784C226.255 38.2898 225.55 38.6922 224.726 38.9858C223.902 39.2699 222.95 39.4119 221.871 39.4119ZM223.604 35.2358C224.494 35.2358 225.28 35.0606 225.962 34.7102C226.643 34.3504 227.179 33.8674 227.567 33.2614C227.955 32.6553 228.149 31.9687 228.149 31.2017V28.8864C227.96 29.0095 227.699 29.1231 227.368 29.2273C227.046 29.322 226.681 29.4119 226.274 29.4972C225.867 29.5729 225.46 29.6439 225.053 29.7102C224.645 29.767 224.276 29.8191 223.945 29.8665C223.234 29.9706 222.614 30.1364 222.084 30.3636C221.554 30.5909 221.142 30.8987 220.848 31.2869C220.554 31.6657 220.408 32.1392 220.408 32.7074C220.408 33.5312 220.706 34.161 221.303 34.5966C221.909 35.0227 222.676 35.2358 223.604 35.2358ZM238.852 39V17.1818H244.719V20.9886H244.946C245.344 19.6345 246.011 18.6117 246.949 17.9205C247.886 17.2197 248.966 16.8693 250.188 16.8693C250.491 16.8693 250.817 16.8883 251.168 16.9261C251.518 16.964 251.826 17.0161 252.091 17.0824V22.4517C251.807 22.3665 251.414 22.2907 250.912 22.2244C250.41 22.1581 249.951 22.125 249.534 22.125C248.644 22.125 247.848 22.3191 247.148 22.7074C246.456 23.0862 245.907 23.6165 245.5 24.2983C245.102 24.9801 244.903 25.7661 244.903 26.6562V39H238.852Z" fill="white"/>
<path d="M265.163 39.4261C262.918 39.4261 260.987 38.9716 259.367 38.0625C257.757 37.1439 256.517 35.8466 255.646 34.1705C254.774 32.4848 254.339 30.4915 254.339 28.1903C254.339 25.946 254.774 23.9763 255.646 22.2812C256.517 20.5862 257.743 19.2652 259.325 18.3182C260.915 17.3712 262.781 16.8977 264.921 16.8977C266.361 16.8977 267.701 17.1297 268.941 17.5938C270.191 18.0483 271.28 18.7348 272.208 19.6534C273.146 20.572 273.875 21.7273 274.396 23.1193C274.916 24.5019 275.177 26.1212 275.177 27.9773V29.6392H256.754V25.8892H269.481C269.481 25.018 269.291 24.2462 268.913 23.5739C268.534 22.9015 268.008 22.3759 267.336 21.9972C266.673 21.6089 265.901 21.4148 265.021 21.4148C264.102 21.4148 263.288 21.6278 262.577 22.054C261.877 22.4706 261.327 23.0341 260.93 23.7443C260.532 24.4451 260.328 25.2263 260.319 26.0881V29.6534C260.319 30.733 260.518 31.6657 260.915 32.4517C261.323 33.2377 261.896 33.8438 262.634 34.2699C263.373 34.696 264.249 34.9091 265.262 34.9091C265.934 34.9091 266.55 34.8144 267.109 34.625C267.667 34.4356 268.146 34.1515 268.543 33.7727C268.941 33.3939 269.244 32.9299 269.452 32.3807L275.049 32.75C274.765 34.0947 274.183 35.2689 273.302 36.2727C272.431 37.267 271.304 38.0436 269.921 38.6023C268.548 39.1515 266.962 39.4261 265.163 39.4261Z" fill="black"/>
<path d="M7.51136 20.8182L7.79545 16.4205L4.11364 18.8864L2.59091 16.2045L6.55682 14.2727L2.59091 12.3409L4.11364 9.65909L7.79545 12.125L7.51136 7.72727H10.5682L10.2727 12.125L13.9545 9.65909L15.4773 12.3409L11.5227 14.2727L15.4773 16.2045L13.9545 18.8864L10.2727 16.4205L10.5682 20.8182H7.51136Z" fill="#FF0000"/>
</svg>
